<?xml version="1.0" encoding="UTF-8" standalone="no"?>
<svg
   xmlns:dc="http://purl.org/dc/elements/1.1/"
   xmlns:cc="http://creativecommons.org/ns#"
   xmlns:rdf="http://www.w3.org/1999/02/22-rdf-syntax-ns#"
   xmlns:svg="http://www.w3.org/2000/svg"
   xmlns="http://www.w3.org/2000/svg"
   xmlns:xlink="http://www.w3.org/1999/xlink"
   xmlns:sodipodi="http://sodipodi.sourceforge.net/DTD/sodipodi-0.dtd"
   xmlns:inkscape="http://www.inkscape.org/namespaces/inkscape"
   inkscape:export-ydpi="96"
   inkscape:export-xdpi="96"
   inkscape:export-filename="C:\UnityProject\Colors\Assets\Graphics\LightPlayer.png"
   sodipodi:docname="Jesaispascequejefaismaismieux.svg"
   inkscape:version="1.0 (4035a4fb49, 2020-05-01)"
   id="svg8"
   version="1.1"
   viewBox="0 0 400 400"
   height="400mm"
   width="400mm">
  <defs
     id="defs2">
    <linearGradient
       id="linearGradient2049"
       inkscape:collect="always">
      <stop
         id="stop2045"
         offset="0"
         style="stop-color:#ffffff;stop-opacity:0.67582418" />
      <stop
         style="stop-color:#ffffff;stop-opacity:0.40934066"
         offset="0.61242473"
         id="stop2059" />
      <stop
         id="stop2047"
         offset="1"
         style="stop-color:#ffffff;stop-opacity:0.40384615" />
    </linearGradient>
    <linearGradient
       id="linearGradient1947"
       inkscape:collect="always">
      <stop
         id="stop1943"
         offset="0"
         style="stop-color:#ffffff;stop-opacity:1;" />
      <stop
         style="stop-color:#ffffff;stop-opacity:0.30494505"
         offset="0.58494377"
         id="stop1953" />
      <stop
         id="stop1945"
         offset="1"
         style="stop-color:#ffffff;stop-opacity:0.10714286" />
    </linearGradient>
    <linearGradient
       id="linearGradient1836"
       inkscape:collect="always">
      <stop
         id="stop1832"
         offset="0"
         style="stop-color:#ffffff;stop-opacity:1;" />
      <stop
         id="stop1834"
         offset="1"
         style="stop-color:#ffffff;stop-opacity:0.20054945" />
    </linearGradient>
    <linearGradient
       id="linearGradient1810"
       inkscape:collect="always">
      <stop
         id="stop1806"
         offset="0"
         style="stop-color:#ffffff;stop-opacity:1;" />
      <stop
         style="stop-color:#ffffff;stop-opacity:0.85714286"
         offset="0.2481841"
         id="stop1814" />
      <stop
         id="stop1816"
         offset="0.29989687"
         style="stop-color:#ffffff;stop-opacity:0.20054945" />
      <stop
         style="stop-color:#ffffff;stop-opacity:0.16470588;"
         offset="0.41972366"
         id="stop1840" />
      <stop
         id="stop1808"
         offset="1"
         style="stop-color:#ffffff;stop-opacity:0;" />
    </linearGradient>
    <linearGradient
       id="linearGradient919"
       inkscape:collect="always">
      <stop
         id="stop915"
         offset="0"
         style="stop-color:#ffffff;stop-opacity:1;" />
      <stop
         id="stop917"
         offset="1"
         style="stop-color:#ffffff;stop-opacity:0;" />
    </linearGradient>
    <radialGradient
       gradientTransform="matrix(1.1103287,0,0,1.1103287,-15.855297,-16.830693)"
       gradientUnits="userSpaceOnUse"
       r="106.58929"
       fy="152.55043"
       fx="143.70961"
       cy="152.55043"
       cx="143.70961"
       id="radialGradient921"
       xlink:href="#linearGradient919"
       inkscape:collect="always" />
    <radialGradient
       gradientUnits="userSpaceOnUse"
       gradientTransform="matrix(1,0,0,0.9999922,0,0.00589918)"
       r="756.4092"
       fy="755.9033"
       fx="755.9053"
       cy="755.9033"
       cx="755.9053"
       id="radialGradient1812"
       xlink:href="#linearGradient1810"
       inkscape:collect="always" />
    <linearGradient
       gradientUnits="userSpaceOnUse"
       y2="135.10522"
       x2="199.99992"
       y1="150.18799"
       x1="199.99992"
       id="linearGradient1838"
       xlink:href="#linearGradient1836"
       inkscape:collect="always" />
    <radialGradient
       gradientUnits="userSpaceOnUse"
       gradientTransform="matrix(3.7795207,0.00718129,-0.02462374,12.959497,3.5677734,-1311.3842)"
       r="7.179475"
       fy="144.83629"
       fx="199.95316"
       cy="144.83629"
       cx="199.95316"
       id="radialGradient1951"
       xlink:href="#linearGradient1947"
       inkscape:collect="always" />
    <linearGradient
       gradientUnits="userSpaceOnUse"
       y2="150.49585"
       x2="200.10133"
       y1="125.0735"
       x1="200.0002"
       id="linearGradient2057"
       xlink:href="#linearGradient2049"
       inkscape:collect="always" />
  </defs>
  <sodipodi:namedview
     inkscape:window-maximized="0"
     inkscape:window-y="26"
     inkscape:window-x="-7"
     inkscape:window-height="955"
     inkscape:window-width="1452"
     inkscape:pagecheckerboard="true"
     showgrid="false"
     inkscape:document-rotation="0"
     inkscape:current-layer="layer1"
     inkscape:document-units="mm"
     inkscape:cy="870.60991"
     inkscape:cx="881.44303"
     inkscape:zoom="0.125"
     inkscape:pageshadow="2"
     inkscape:pageopacity="0"
     borderopacity="1.0"
     bordercolor="#666666"
     pagecolor="#ffffff"
     id="base" />
  <metadata
     id="metadata5">
    <rdf:RDF>
      <cc:Work
         rdf:about="">
        <dc:format>image/svg+xml</dc:format>
        <dc:type
           rdf:resource="http://purl.org/dc/dcmitype/StillImage" />
        <dc:title></dc:title>
      </cc:Work>
    </rdf:RDF>
  </metadata>
  <g
     id="layer1"
     inkscape:groupmode="layer"
     inkscape:label="Calque 1">
    <path
       transform="scale(0.26458333)"
       d="M 755.90625 0 A 755.90913 755.90365 0 0 0 -0.00390625 755.9043 A 755.90913 755.90365 0 0 0 755.90625 1511.8066 A 755.90913 755.90365 0 0 0 1511.8145 755.9043 A 755.90913 755.90365 0 0 0 755.90625 0 z M 755.90625 472.71875 A 52.203969 195.9062 0 0 1 801.58398 573.7793 A 187.76697 187.76562 0 0 1 943.67188 755.9043 A 187.76697 187.76562 0 0 1 755.90625 943.66992 A 187.76697 187.76562 0 0 1 568.13867 755.9043 A 187.76697 187.76562 0 0 1 710.22656 573.7793 A 52.203969 195.9062 0 0 1 755.90625 472.71875 z "
       style="opacity:1;fill:url(#radialGradient1812);fill-opacity:1;stroke:#ffffff;stroke-width:0.999999;stroke-opacity:0"
       id="path1782" />
    <path
       transform="scale(0.26458333)"
       d="M 755.9043 474.01562 L 728.99805 570.88672 A 63.793225 14.79326 0 0 1 755.94141 569.50195 A 63.793225 14.79326 0 0 1 782.80859 570.87695 L 755.9043 474.01562 z "
       style="opacity:1;fill:url(#radialGradient1951);fill-opacity:1;stroke:none;stroke-width:0.963156px;stroke-linecap:butt;stroke-linejoin:miter;stroke-opacity:1"
       id="path1923" />
    <path
       d="m 199.99993,135.10522 -3.15614,15.0843 h 3.15614 3.15615 z"
       style="fill:url(#linearGradient1838);fill-opacity:1;stroke:none;stroke-width:0.129073px;stroke-linecap:butt;stroke-linejoin:miter;stroke-opacity:1;opacity:1"
       id="path1799" />
    <path
       d="m 199.99342,125.07143 a 13.57542,49.66736 0 0 0 -12.03994,26.77201 16.999531,3.91405 0 0 1 0.008,-0.002 16.999531,3.91405 0 0 1 0.14105,-0.032 16.999531,3.91405 0 0 1 0.0853,-0.0191 16.999531,3.91405 0 0 1 0.0656,-0.0145 16.999531,3.91405 0 0 1 0.15301,-0.0331 16.999531,3.91405 0 0 1 0.0874,-0.0186 16.999531,3.91405 0 0 1 0.15562,-0.0326 16.999531,3.91405 0 0 1 0.0677,-0.014 16.999531,3.91405 0 0 1 0.0895,-0.0181 16.999531,3.91405 0 0 1 0.0687,-0.0139 16.999531,3.91405 0 0 1 0.0687,-0.0134 16.999531,3.91405 0 0 1 0.0911,-0.0176 16.999531,3.91405 0 0 1 0.16135,-0.031 16.999531,3.91405 0 0 1 0.1629,-0.0305 16.999531,3.91405 0 0 1 0.0932,-0.0171 16.999531,3.91405 0 0 1 0.0719,-0.0129 16.999531,3.91405 0 0 1 0.0942,-0.0171 16.999531,3.91405 0 0 1 0.0109,-0.002 16.999531,3.91405 0 0 1 0.12231,-0.0212 16.999531,3.91405 0 0 1 0.0728,-0.0129 16.999531,3.91405 0 0 1 0.12959,-0.0217 16.999531,3.91405 0 0 1 0.0735,-0.0124 16.999531,3.91405 0 0 1 0.0968,-0.016 16.999531,3.91405 0 0 1 0.16343,-0.0264 16.999531,3.91405 0 0 1 0.0396,-0.006 16.999531,3.91405 0 0 1 0.1322,-0.0212 16.999531,3.91405 0 0 1 0.01,-0.002 16.999531,3.91405 0 0 1 0.1603,-0.0248 16.999531,3.91405 0 0 1 0.0698,-0.0103 16.999531,3.91405 0 0 1 0.0624,-0.009 16.999531,3.91405 0 0 1 0.0666,-0.01 16.999531,3.91405 0 0 1 0.13793,-0.0202 16.999531,3.91405 0 0 1 0.10878,-0.0155 16.999531,3.91405 0 0 1 0.10201,-0.0145 16.999531,3.91405 0 0 1 0.0255,-0.004 16.999531,3.91405 0 0 1 0.1041,-0.0145 16.999531,3.91405 0 0 1 0.12855,-0.017 16.999531,3.91405 0 0 1 0.10357,-0.014 16.999531,3.91405 0 0 1 0.0448,-0.006 16.999531,3.91405 0 0 1 0.13792,-0.0181 16.999531,3.91405 0 0 1 0.0796,-0.0103 16.999531,3.91405 0 0 1 0.09,-0.0114 16.999531,3.91405 0 0 1 0.0947,-0.0114 16.999531,3.91405 0 0 1 0.10515,-0.0129 16.999531,3.91405 0 0 1 0.0156,-0.002 16.999531,3.91405 0 0 1 0.14624,-0.0171 16.999531,3.91405 0 0 1 0.10566,-0.0124 16.999531,3.91405 0 0 1 0.10722,-0.0124 16.999531,3.91405 0 0 1 0.0167,-0.002 16.999531,3.91405 0 0 1 0.12908,-0.0145 16.999531,3.91405 0 0 1 0.12491,-0.0134 16.999531,3.91405 0 0 1 0.10825,-0.0119 16.999531,3.91405 0 0 1 0.0464,-0.005 16.999531,3.91405 0 0 1 0.0724,-0.008 16.999531,3.91405 0 0 1 0.14521,-0.015 16.999531,3.91405 0 0 1 0.11919,-0.0119 16.999531,3.91405 0 0 1 0.0833,-0.008 16.999531,3.91405 0 0 1 0.11034,-0.0109 16.999531,3.91405 0 0 1 0.0838,-0.008 16.999531,3.91405 0 0 1 0.0817,-0.008 16.999531,3.91405 0 0 1 0.0573,-0.005 16.999531,3.91405 0 0 1 0.16655,-0.015 16.999531,3.91405 0 0 1 0.0844,-0.008 16.999531,3.91405 0 0 1 0.0703,-0.006 16.999531,3.91405 0 0 1 0.0869,-0.007 16.999531,3.91405 0 0 1 0.15146,-0.0129 16.999531,3.91405 0 0 1 0.0854,-0.007 16.999531,3.91405 0 0 1 0.0417,-0.003 16.999531,3.91405 0 0 1 0.14886,-0.0124 16.999531,3.91405 0 0 1 0.12127,-0.009 16.999531,3.91405 0 0 1 0.0858,-0.007 16.999531,3.91405 0 0 1 0.0942,-0.007 16.999531,3.91405 0 0 1 0.10566,-0.008 16.999531,3.91405 0 0 1 0.11397,-0.008 16.999531,3.91405 0 0 1 0.0869,-0.006 16.999531,3.91405 0 0 1 0.0703,-0.005 16.999531,3.91405 0 0 1 0.13116,-0.009 16.999531,3.91405 0 0 1 0.11503,-0.008 16.999531,3.91405 0 0 1 0.0229,-0.002 16.999531,3.91405 0 0 1 0.38306,-0.0233 16.999531,3.91405 0 0 1 0.0879,-0.005 16.999531,3.91405 0 0 1 0.11606,-0.006 16.999531,3.91405 0 0 1 0.19257,-0.0109 16.999531,3.91405 0 0 1 0.0244,-0.001 16.999531,3.91405 0 0 1 0.19257,-0.01 16.999531,3.91405 0 0 1 0.20559,-0.01 16.999531,3.91405 0 0 1 0.089,-0.004 16.999531,3.91405 0 0 1 0.11711,-0.005 16.999531,3.91405 0 0 1 0.20662,-0.009 16.999531,3.91405 0 0 1 0.0895,-0.004 16.999531,3.91405 0 0 1 0.11762,-0.004 16.999531,3.91405 0 0 1 0.20039,-0.007 16.999531,3.91405 0 0 1 0.007,-5.2e-4 16.999531,3.91405 0 0 1 0.20767,-0.007 16.999531,3.91405 0 0 1 0.09,-0.003 16.999531,3.91405 0 0 1 0.0786,-0.003 16.999531,3.91405 0 0 1 0.0781,-0.002 16.999531,3.91405 0 0 1 0.10462,-0.003 16.999531,3.91405 0 0 1 0.15561,-0.004 16.999531,3.91405 0 0 1 0.11867,-0.003 16.999531,3.91405 0 0 1 0.0343,-5.1e-4 16.999531,3.91405 0 0 1 0.38202,-0.008 16.999531,3.91405 0 0 1 0.003,0 16.999531,3.91405 0 0 1 0.09,-0.002 16.999531,3.91405 0 0 1 0.20975,-0.003 16.999531,3.91405 0 0 1 0.11919,-0.002 16.999531,3.91405 0 0 1 0.0333,-5.2e-4 16.999531,3.91405 0 0 1 0.17644,-0.002 16.999531,3.91405 0 0 1 0.21027,-0.002 16.999531,3.91405 0 0 1 0.0905,-5.2e-4 16.999531,3.91405 0 0 1 0.11918,-5.1e-4 16.999531,3.91405 0 0 1 0.21027,-5.2e-4 16.999531,3.91405 0 0 1 0.0239,0 16.999531,3.91405 0 0 1 0.21027,5.2e-4 16.999531,3.91405 0 0 1 0.42002,0.002 16.999531,3.91405 0 0 1 0.62872,0.008 16.999531,3.91405 0 0 1 0.41898,0.008 16.999531,3.91405 0 0 1 1.24807,0.0393 16.999531,3.91405 0 0 1 5.3e-4,0 16.999531,3.91405 0 0 1 0.41273,0.0181 16.999531,3.91405 0 0 1 0.41065,0.0202 16.999531,3.91405 0 0 1 2.60389,0.18707 16.999531,3.91405 0 0 1 0.38774,0.0372 16.999531,3.91405 0 0 1 0.19257,0.0196 16.999531,3.91405 0 0 1 0.38151,0.0403 16.999531,3.91405 0 0 1 0.74895,0.0878 16.999531,3.91405 0 0 1 0.90873,0.12093 16.999531,3.91405 0 0 1 0.70263,0.10645 16.999531,3.91405 0 0 1 0.34247,0.0558 16.999531,3.91405 0 0 1 0.50173,0.0879 16.999531,3.91405 0 0 1 5.2e-4,0 16.999531,3.91405 0 0 1 0.16395,0.03 16.999531,3.91405 0 0 1 0.94985,0.19069 16.999531,3.91405 0 0 1 5.1e-4,0 16.999531,3.91405 0 0 1 0.30239,0.0672 16.999531,3.91405 0 0 1 0.11815,0.0269 13.57542,49.66736 0 0 0 -12.04775,-26.77563 13.57542,49.66736 0 0 0 -0.007,0 z m 12.70823,32.13448 a 16.999531,3.91405 0 0 1 -0.0313,0.008 16.999531,3.91405 0 0 1 -0.10929,0.0279 16.999531,3.91405 0 0 1 -0.0104,0.003 h 0.1551 a 13.57542,49.66736 0 0 0 -0.004,-0.0388 z m -25.40292,0.004 a 13.57542,49.66736 0 0 0 -0.004,0.0346 h 0.14001 a 16.999531,3.91405 0 0 1 -0.1041,-0.0264 16.999531,3.91405 0 0 1 -5.2e-4,0 16.999531,3.91405 0 0 1 -0.0318,-0.008 z"
       style="opacity:0.304945;fill:url(#linearGradient2057);fill-opacity:1;stroke:none;stroke-width:0.547147;stroke-opacity:0"
       id="path1979" />
    <path
       id="path2067"
       d="m 187.91411,151.81244 c 2.06536,-10.51219 2.08887,-10.46548 2.08887,-10.46548 z"
       style="fill:none;stroke:none;stroke-width:0.264583px;stroke-linecap:butt;stroke-linejoin:miter;stroke-opacity:1" />
  </g>
</svg>
